<?xml version="1.0" encoding="UTF-8"?>
<svg id="_圖層_1" data-name="圖層 1" xmlns="http://www.w3.org/2000/svg" viewBox="0 0 14 20.98">
  <path fill="white" d="M5,6.98c0-.27,.22-.5,.5-.5s.5,.23,.5,.5v4.25c0,.32,.21,.61,.51,.71s.64,0,.84-.26c.09-.12,.24-.2,.4-.2,.27,0,.5,.22,.5,.5,0,.32,.21,.61,.51,.71s.64,0,.84-.26c.09-.12,.24-.2,.4-.2,.24,0,.45,.18,.49,.41,.05,.26,.23,.47,.47,.56s.52,.05,.73-.11c.08-.07,.19-.11,.31-.11,.27,0,.5,.23,.5,.5v3.74c0,1.24-1.01,2.25-2.25,2.25h-3.64c-1.17,0-2.26-.58-2.91-1.56l-2.11-3.16c-.15-.23-.09-.54,.14-.69s.54-.09,.69,.14l1.21,1.82c.18,.27,.53,.4,.84,.3s.53-.39,.53-.72V6.98h0Zm.5-2c-1.1,0-2,.9-2,2v6.18c-.65-.74-1.77-.9-2.61-.34-.92,.62-1.17,1.86-.55,2.78l2.11,3.17c.93,1.39,2.49,2.23,4.16,2.23h3.64c2.07,0,3.75-1.68,3.75-3.75v-3.75c0-1.1-.9-2-2-2-.14,0-.27,.02-.41,.04-.37-.48-.94-.79-1.59-.79-.22,0-.42,.03-.62,.1-.36-.51-.96-.85-1.63-.85-.08,0-.17,0-.25,.02v-3.02c0-1.1-.9-2-2-2Zm1.5,9.5c0-.27-.22-.5-.5-.5s-.5,.23-.5,.5v3c0,.27,.22,.5,.5,.5s.5-.23,.5-.5v-3Zm1.5-.5c-.27,0-.5,.23-.5,.5v3c0,.27,.23,.5,.5,.5s.5-.23,.5-.5v-3c0-.27-.23-.5-.5-.5Zm2.5,.5c0-.27-.23-.5-.5-.5s-.5,.23-.5,.5v3c0,.27,.23,.5,.5,.5s.5-.23,.5-.5v-3Z"/>
  <path fill="white" d="M2.9,4.59c-.21,0-.41-.09-.54-.27l-1.16-1.57c-.22-.3-.16-.72,.14-.94,.3-.22,.72-.16,.94,.14l1.16,1.57c.22,.3,.16,.72-.14,.94-.12,.09-.26,.13-.4,.13Z"/>
  <path fill="white" d="M7.7,4.59c-.14,0-.28-.04-.4-.13-.3-.22-.36-.64-.14-.94l1.16-1.57c.22-.3,.64-.36,.94-.14,.3,.22,.36,.64,.14,.94l-1.16,1.57c-.13,.18-.34,.27-.54,.27Z"/>
  <path fill="white" d="M5.3,3.56c-.37,0-.67-.3-.67-.67V.67c0-.37,.3-.67,.67-.67s.67,.3,.67,.67V2.89c0,.37-.3,.67-.67,.67Z"/>
</svg>